<svg width="36" height="50" viewBox="0 0 36 50" fill="none" xmlns="http://www.w3.org/2000/svg">
<path d="M25.1149 20.0864H27.1084V18.5747C27.1084 17.7458 26.4341 17.0714 25.6051 17.0714H24.506H11.4966H10.3975C9.56876 17.0714 8.89429 17.7458 8.89429 18.5747V20.0863H10.8831H25.1149V20.0864Z" fill="url(#paint0_linear_23_40541)"/>
<path d="M12.7672 38.5196H25.5009C24.7292 34.3595 23.9938 30.3918 23.1615 25.8914H12.8377C12.3446 28.5575 11.8856 31.0364 11.4334 33.4791C10.9453 36.1155 10.4648 38.7095 9.95801 41.4509H26.0449C25.9077 40.7118 25.7728 39.9841 25.6389 39.2626H12.7672C12.562 39.2626 12.3956 39.0962 12.3956 38.891C12.3956 38.6859 12.562 38.5196 12.7672 38.5196Z" fill="url(#paint1_linear_23_40541)"/>
<path d="M23.8491 22.6175C24.3424 22.6175 24.7435 22.2144 24.7435 21.719V20.8294H11.2546V21.719C11.2546 22.2144 11.6579 22.6175 12.1534 22.6175H12.4944H23.5046H23.8491Z" fill="url(#paint2_linear_23_40541)"/>
<path d="M23.1331 23.3606H12.866V25.1483H23.1331V23.3606Z" fill="url(#paint3_linear_23_40541)"/>
<path d="M24.2535 14.4467H20.9481H15.0511H11.7495V16.3284H24.2535V14.4467Z" fill="url(#paint4_linear_23_40541)"/>
<path d="M20.5764 13.1597H15.4226V13.7037H20.5764V13.1597Z" fill="url(#paint5_linear_23_40541)"/>
<path d="M20.5763 11.3944C20.2736 11.53 19.9594 11.6382 19.6378 11.7207C19.6241 11.7242 19.6103 11.7272 19.5966 11.7306C19.5186 11.7501 19.4402 11.7687 19.3613 11.7849C19.328 11.792 19.2942 11.7973 19.2608 11.8036C19.1986 11.8153 19.1368 11.8273 19.0743 11.8369C19.023 11.8449 18.9709 11.8509 18.919 11.8574C18.8724 11.8635 18.8258 11.8705 18.7788 11.8753C18.7108 11.8824 18.6423 11.8869 18.5736 11.8917C18.5411 11.8938 18.5088 11.8973 18.4762 11.899C18.3746 11.9043 18.2723 11.9071 18.1696 11.9071C18.0579 11.9071 17.947 11.9032 17.8367 11.897C17.798 11.8948 17.7595 11.8911 17.721 11.8881C17.6503 11.8828 17.5799 11.8767 17.5099 11.8689C17.4622 11.8637 17.4148 11.8573 17.3673 11.8508C17.3085 11.8427 17.2499 11.8338 17.1917 11.8239C17.1384 11.8149 17.085 11.8058 17.0321 11.7954C16.9843 11.786 16.9371 11.7751 16.8897 11.7646C16.6497 11.7112 16.4138 11.643 16.183 11.5597C16.1737 11.5565 16.1641 11.5534 16.155 11.55C16.0748 11.5207 15.9956 11.4889 15.9169 11.4561C15.9038 11.4505 15.8908 11.4452 15.8777 11.4397C15.7236 11.3741 15.5711 11.3041 15.4226 11.2251V12.4167H20.5765V11.3944H20.5763Z" fill="url(#paint6_linear_23_40541)"/>
<path d="M17.3635 10.085L17.3629 10.0848L17.3417 10.0804C15.471 9.69694 14.0622 8.03857 14.0623 6.06452V6.06447C14.0623 3.79986 15.9059 1.95617 18.1697 1.95617C20.4341 1.95617 22.2781 3.80005 22.2781 6.06447C22.2781 7.88948 21.0733 9.44573 19.4094 9.97268C19.3955 9.97704 19.3804 9.98165 19.3636 9.98672L19.3609 9.98751C19.3054 10.0044 19.2541 10.0191 19.2051 10.0319C19.1683 10.0414 19.1279 10.0505 19.0717 10.063L19.0683 10.0638C19.0218 10.0743 18.9736 10.0841 18.9235 10.0934C18.8587 10.1053 18.8052 10.1144 18.7558 10.1214L18.7536 10.1217C18.7362 10.1242 18.72 10.1262 18.6932 10.1295L17.3635 10.085ZM17.3635 10.085C17.4847 10.109 17.6085 10.1277 17.7348 10.141L17.7381 10.1413C17.7381 10.1413 17.7399 10.1415 17.7452 10.142L17.76 10.1433L17.7743 10.1447C17.8227 10.1493 17.8727 10.153 17.9251 10.1561C17.948 10.1574 17.9556 10.1579 17.9604 10.1582C17.9645 10.1585 17.9665 10.1586 17.9745 10.159L17.9779 10.1591C18.0465 10.1623 18.1095 10.1641 18.1695 10.1641C18.2469 10.1641 18.3291 10.161 18.4191 10.1556L18.4213 10.1555C18.4313 10.1549 18.4373 10.1544 18.4503 10.1533C18.4598 10.1525 18.4731 10.1514 18.4944 10.1497L18.4961 10.1496C18.5529 10.1452 18.6101 10.1395 18.6674 10.1326L17.3635 10.085Z" stroke="url(#paint7_linear_23_40541)" stroke-width="2"/>
<path d="M28.6472 44.7248H28.4261H7.57271H7.3508C6.15772 44.7248 5.18701 45.6937 5.18701 46.8845V49.0437H30.811V46.8845C30.811 45.6937 29.8403 44.7248 28.6472 44.7248Z" fill="url(#paint8_linear_23_40541)"/>
<path d="M7.94434 42.1941V43.9817H28.0546V42.1941H26.4936H26.4915H9.51124H7.94434Z" fill="url(#paint9_linear_23_40541)"/>
<path d="M25.7052 26.2262C25.7778 26.2984 25.8728 26.3346 25.9676 26.3346C26.063 26.3346 26.1581 26.2981 26.2306 26.2253L28.8488 23.5991H35.5166C35.7219 23.5991 35.8882 23.4328 35.8882 23.2275C35.8882 23.0223 35.7218 22.8559 35.5166 22.8559H28.6944C28.5957 22.8559 28.501 22.8952 28.4313 22.9651L25.7043 25.7005C25.5596 25.8461 25.5598 26.0813 25.7052 26.2262Z" fill="url(#paint10_linear_23_40541)"/>
<path d="M35.5169 32.6051H28.8486L26.2306 29.987C26.0855 29.842 25.8502 29.842 25.7049 29.987C25.5599 30.1321 25.5599 30.3673 25.7049 30.5125L28.4321 33.2395C28.5017 33.3092 28.5962 33.3483 28.6947 33.3483H35.5169C35.7222 33.3483 35.8885 33.1819 35.8885 32.9768C35.8885 32.7715 35.7221 32.6051 35.5169 32.6051Z" fill="url(#paint11_linear_23_40541)"/>
<path d="M0.483004 23.5992H7.15006L9.76821 26.2254C9.84083 26.2982 9.93598 26.3347 10.0313 26.3347C10.1262 26.3347 10.2211 26.2985 10.2936 26.2263C10.4388 26.0814 10.4393 25.8462 10.2943 25.7008L7.56727 22.9654C7.49749 22.8954 7.4029 22.8562 7.30423 22.8562H0.48289C0.277738 22.8562 0.111328 23.0226 0.111328 23.2277C0.111441 23.4329 0.277851 23.5992 0.483004 23.5992Z" fill="url(#paint12_linear_23_40541)"/>
<path d="M0.483021 33.3482H7.30437C7.40281 33.3482 7.4974 33.3091 7.56706 33.2394L10.2942 30.5124C10.4392 30.3673 10.4392 30.1321 10.2942 29.9869C10.1491 29.8419 9.9138 29.8419 9.76869 29.9869L7.15053 32.605H0.483136C0.277983 32.605 0.111572 32.7714 0.111572 32.9766C0.111459 33.1819 0.277869 33.3482 0.483021 33.3482Z" fill="url(#paint13_linear_23_40541)"/>
<path d="M35.5167 24.4242H33.8629C33.6578 24.4242 33.4915 24.5905 33.4915 24.7958V26.4489C33.4915 26.6541 33.6579 26.8203 33.8629 26.8203H35.5167C35.722 26.8203 35.8883 26.654 35.8883 26.4489V24.7958C35.8883 24.5905 35.7218 24.4242 35.5167 24.4242ZM35.1451 26.0773H35.1447V25.1673H35.1451V26.0773Z" fill="url(#paint14_linear_23_40541)"/>
<path d="M35.5167 34.0453H33.8629C33.6578 34.0453 33.4915 34.2116 33.4915 34.4167V36.0701C33.4915 36.2752 33.6579 36.4415 33.8629 36.4415H35.5167C35.722 36.4415 35.8883 36.2751 35.8883 36.0701V34.4167C35.8883 34.2115 35.7218 34.0453 35.5167 34.0453ZM35.1451 35.6984H35.1447V34.7883H35.1451V35.6984Z" fill="url(#paint15_linear_23_40541)"/>
<path d="M0.48289 26.8203H2.13589C2.34104 26.8203 2.50745 26.654 2.50745 26.4489V24.7958C2.50745 24.5905 2.34104 24.4242 2.13589 24.4242H0.48289C0.277738 24.4242 0.111328 24.5905 0.111328 24.7958V26.4489C0.111328 26.6541 0.277738 26.8203 0.48289 26.8203ZM1.76433 25.1673V26.0773H1.76399V25.1673H1.76433Z" fill="url(#paint16_linear_23_40541)"/>
<path d="M2.13589 34.0453H0.48289C0.277738 34.0453 0.111328 34.2116 0.111328 34.4167V36.0701C0.111328 36.2752 0.277738 36.4415 0.48289 36.4415H2.13589C2.34104 36.4415 2.50745 36.2751 2.50745 36.0701V34.4167C2.50745 34.2115 2.34104 34.0453 2.13589 34.0453ZM1.76433 35.6984H1.76399V34.7883H1.76433V35.6984Z" fill="url(#paint17_linear_23_40541)"/>
<defs>
<linearGradient id="paint0_linear_23_40541" x1="18.0014" y1="17.0714" x2="18.0014" y2="20.0864" gradientUnits="userSpaceOnUse">
<stop stop-color="#AEB1B7"/>
<stop offset="0.405" stop-color="#E1E3E4"/>
<stop offset="1" stop-color="#ACADB0"/>
</linearGradient>
<linearGradient id="paint1_linear_23_40541" x1="18.0014" y1="25.8914" x2="18.0014" y2="41.4509" gradientUnits="userSpaceOnUse">
<stop stop-color="#AEB1B7"/>
<stop offset="0.405" stop-color="#E1E3E4"/>
<stop offset="1" stop-color="#ACADB0"/>
</linearGradient>
<linearGradient id="paint2_linear_23_40541" x1="17.9991" y1="20.8294" x2="17.9991" y2="22.6175" gradientUnits="userSpaceOnUse">
<stop stop-color="#AEB1B7"/>
<stop offset="0.405" stop-color="#E1E3E4"/>
<stop offset="1" stop-color="#ACADB0"/>
</linearGradient>
<linearGradient id="paint3_linear_23_40541" x1="17.9995" y1="23.3606" x2="17.9995" y2="25.1483" gradientUnits="userSpaceOnUse">
<stop stop-color="#AEB1B7"/>
<stop offset="0.405" stop-color="#E1E3E4"/>
<stop offset="1" stop-color="#ACADB0"/>
</linearGradient>
<linearGradient id="paint4_linear_23_40541" x1="18.0015" y1="14.4467" x2="18.0015" y2="16.3284" gradientUnits="userSpaceOnUse">
<stop stop-color="#AEB1B7"/>
<stop offset="0.405" stop-color="#E1E3E4"/>
<stop offset="1" stop-color="#ACADB0"/>
</linearGradient>
<linearGradient id="paint5_linear_23_40541" x1="17.9995" y1="13.1597" x2="17.9995" y2="13.7037" gradientUnits="userSpaceOnUse">
<stop stop-color="#AEB1B7"/>
<stop offset="0.405" stop-color="#E1E3E4"/>
<stop offset="1" stop-color="#ACADB0"/>
</linearGradient>
<linearGradient id="paint6_linear_23_40541" x1="17.9995" y1="11.2251" x2="17.9995" y2="12.4167" gradientUnits="userSpaceOnUse">
<stop stop-color="#AEB1B7"/>
<stop offset="0.405" stop-color="#E1E3E4"/>
<stop offset="1" stop-color="#ACADB0"/>
</linearGradient>
<linearGradient id="paint7_linear_23_40541" x1="18.1702" y1="0.956169" x2="18.1702" y2="11.1641" gradientUnits="userSpaceOnUse">
<stop stop-color="#AEB1B7"/>
<stop offset="0.405" stop-color="#E1E3E4"/>
<stop offset="1" stop-color="#ACADB0"/>
</linearGradient>
<linearGradient id="paint8_linear_23_40541" x1="17.999" y1="44.7248" x2="17.999" y2="49.0437" gradientUnits="userSpaceOnUse">
<stop stop-color="#AEB1B7"/>
<stop offset="0.405" stop-color="#E1E3E4"/>
<stop offset="1" stop-color="#ACADB0"/>
</linearGradient>
<linearGradient id="paint9_linear_23_40541" x1="17.9995" y1="42.1941" x2="17.9995" y2="43.9817" gradientUnits="userSpaceOnUse">
<stop stop-color="#AEB1B7"/>
<stop offset="0.405" stop-color="#E1E3E4"/>
<stop offset="1" stop-color="#ACADB0"/>
</linearGradient>
<linearGradient id="paint10_linear_23_40541" x1="30.7421" y1="22.8559" x2="30.7421" y2="26.3346" gradientUnits="userSpaceOnUse">
<stop stop-color="#AEB1B7"/>
<stop offset="0.405" stop-color="#E1E3E4"/>
<stop offset="1" stop-color="#ACADB0"/>
</linearGradient>
<linearGradient id="paint11_linear_23_40541" x1="30.7423" y1="29.8782" x2="30.7423" y2="33.3483" gradientUnits="userSpaceOnUse">
<stop stop-color="#AEB1B7"/>
<stop offset="0.405" stop-color="#E1E3E4"/>
<stop offset="1" stop-color="#ACADB0"/>
</linearGradient>
<linearGradient id="paint12_linear_23_40541" x1="5.25706" y1="22.8562" x2="5.25706" y2="26.3347" gradientUnits="userSpaceOnUse">
<stop stop-color="#AEB1B7"/>
<stop offset="0.405" stop-color="#E1E3E4"/>
<stop offset="1" stop-color="#ACADB0"/>
</linearGradient>
<linearGradient id="paint13_linear_23_40541" x1="5.25726" y1="29.8781" x2="5.25726" y2="33.3482" gradientUnits="userSpaceOnUse">
<stop stop-color="#AEB1B7"/>
<stop offset="0.405" stop-color="#E1E3E4"/>
<stop offset="1" stop-color="#ACADB0"/>
</linearGradient>
<linearGradient id="paint14_linear_23_40541" x1="34.6899" y1="24.4242" x2="34.6899" y2="26.8203" gradientUnits="userSpaceOnUse">
<stop stop-color="#AEB1B7"/>
<stop offset="0.405" stop-color="#E1E3E4"/>
<stop offset="1" stop-color="#ACADB0"/>
</linearGradient>
<linearGradient id="paint15_linear_23_40541" x1="34.6899" y1="34.0453" x2="34.6899" y2="36.4415" gradientUnits="userSpaceOnUse">
<stop stop-color="#AEB1B7"/>
<stop offset="0.405" stop-color="#E1E3E4"/>
<stop offset="1" stop-color="#ACADB0"/>
</linearGradient>
<linearGradient id="paint16_linear_23_40541" x1="1.30939" y1="24.4242" x2="1.30939" y2="26.8203" gradientUnits="userSpaceOnUse">
<stop stop-color="#AEB1B7"/>
<stop offset="0.405" stop-color="#E1E3E4"/>
<stop offset="1" stop-color="#ACADB0"/>
</linearGradient>
<linearGradient id="paint17_linear_23_40541" x1="1.30939" y1="34.0453" x2="1.30939" y2="36.4415" gradientUnits="userSpaceOnUse">
<stop stop-color="#AEB1B7"/>
<stop offset="0.405" stop-color="#E1E3E4"/>
<stop offset="1" stop-color="#ACADB0"/>
</linearGradient>
</defs>
</svg>
