<svg width="20" height="20" viewBox="0 0 20 20" fill="none" xmlns="http://www.w3.org/2000/svg">
<g clip-path="url(#clip0_22_39600)">
<path fill-rule="evenodd" clip-rule="evenodd" d="M19.1666 3.33333C19.1666 1.95262 18.0473 0.833328 16.6666 0.833328H3.33325C1.95254 0.833328 0.833252 1.95262 0.833252 3.33333V16.6667C0.833252 18.0474 1.95254 19.1667 3.33325 19.1667H16.6666C18.0473 19.1667 19.1666 18.0474 19.1666 16.6667V3.33333ZM17.4999 3.33333C17.4999 2.8731 17.1268 2.49999 16.6666 2.49999H3.33325C2.87302 2.49999 2.49992 2.8731 2.49992 3.33333V16.6667C2.49992 17.1269 2.87302 17.5 3.33325 17.5H16.6666C17.1268 17.5 17.4999 17.1269 17.4999 16.6667V3.33333Z" fill="#EBEBEB"/>
<path d="M13.3334 6.66666C13.3334 8.50758 11.841 9.99999 10.0001 9.99999C8.15913 9.99999 6.66675 8.50758 6.66675 6.66666C6.66675 4.82571 8.15913 3.33333 10.0001 3.33333C11.841 3.33333 13.3334 4.82571 13.3334 6.66666ZM8.31438 6.66666C8.31438 7.59765 9.06908 8.35233 10.0001 8.35233C10.9311 8.35233 11.6857 7.59765 11.6857 6.66666C11.6857 5.73567 10.9311 4.98096 10.0001 4.98096C9.06908 4.98096 8.31438 5.73567 8.31438 6.66666Z" fill="#EBEBEB"/>
<path fill-rule="evenodd" clip-rule="evenodd" d="M4.49918 13.9007C5.4084 11.5238 7.89255 10.8333 9.99994 10.8333C12.1074 10.8333 14.5915 11.5238 15.5007 13.9007C15.792 14.6623 15.5688 15.3963 15.1135 15.8982C14.6752 16.3813 14.0179 16.6667 13.3333 16.6667H6.6666C5.98201 16.6667 5.32471 16.3813 4.88637 15.8982C4.43108 15.3963 4.20783 14.6623 4.49918 13.9007ZM9.99994 12.5C8.10282 12.5 6.58248 13.1194 6.05585 14.4962C6.01515 14.6025 6.04582 14.6957 6.12074 14.7783C6.22904 14.8977 6.43072 15 6.6666 15H13.3333C13.5692 15 13.7709 14.8977 13.8791 14.7783C13.954 14.6957 13.9847 14.6025 13.944 14.4962C13.4174 13.1194 11.897 12.5 9.99994 12.5Z" fill="#EBEBEB"/>
</g>
<defs>
<clipPath id="clip0_22_39600">
<rect width="20" height="20" fill="white"/>
</clipPath>
</defs>
</svg>
