<svg width="22" height="23" viewBox="0 0 22 23" fill="none" xmlns="http://www.w3.org/2000/svg">
<path d="M3.47117 14.321L8.1992 19.0728M19.7734 1.10005C17.8368 1.0822 16.9401 1.97727 16.646 2.88184C16.3871 3.67836 16.6237 5.30977 16.0055 6.51815C15.4144 7.67356 13.8499 8.32582 12.0735 8.38078M20.9879 5.95691L21 5.95701M19.7738 16.0935L19.786 16.0936M5.20565 1.51222L5.21779 1.51234M19.7738 10.2048C17.9528 10.2048 16.7388 10.8118 15.64 11.9472M9.13626 5.44406C10.0617 4.13528 10.6687 2.92127 10.0717 1M1 21.562L5.29219 8.68542L13.8766 17.2698L1 21.562Z" stroke="#EBEBEB" stroke-width="2" stroke-linecap="round" stroke-linejoin="round"/>
</svg>
