<svg width="22" height="22" viewBox="0 0 22 22" fill="none" xmlns="http://www.w3.org/2000/svg">
<path d="M1 13C1 9.2288 1 7.34315 2.17157 6.17157C3.34315 5 5.22876 5 9 5H13C16.7712 5 18.6569 5 19.8284 6.17157C21 7.34315 21 9.2288 21 13C21 16.7712 21 18.6569 19.8284 19.8284C18.6569 21 16.7712 21 13 21H9C5.22876 21 3.34315 21 2.17157 19.8284C1 18.6569 1 16.7712 1 13Z" stroke="#EBEBEB" stroke-width="2"/>
<path d="M15 5C15 3.11438 15 2.17157 14.4142 1.58579C13.8284 1 12.8856 1 11 1C9.1144 1 8.17157 1 7.58579 1.58579C7 2.17157 7 3.11438 7 5" stroke="#EBEBEB" stroke-width="2"/>
<path d="M11 16.3333C12.1046 16.3333 13 15.5871 13 14.6667C13 13.7462 12.1046 13 11 13C9.8954 13 9 12.2538 9 11.3333C9 10.4129 9.8954 9.6667 11 9.6667M11 16.3333C9.8954 16.3333 9 15.5871 9 14.6667M11 16.3333V17M11 9.6667V9M11 9.6667C12.1046 9.6667 13 10.4129 13 11.3333" stroke="#EBEBEB" stroke-width="2" stroke-linecap="round"/>
</svg>
