<svg width="30" height="27" viewBox="0 0 30 27" fill="none" xmlns="http://www.w3.org/2000/svg">
<g clip-path="url(#clip0_19_35513)">
<path d="M5.56532 26.0702L5.18082 22.428C5.18082 22.0939 5.63317 22.3906 6.20426 22.3906C6.77159 22.3906 7.22959 22.0939 7.22959 22.428L6.90918 25.9796C6.90918 26.756 5.56532 26.4398 5.56532 26.0702ZM3.9199 14.2142C1.1059 13.0149 1.33396 11.1281 1.33396 11.1281C0.979618 11.7943 1.73354 17.606 4.66816 17.606C5.97997 17.6077 7.08258 15.5539 3.9199 14.2142ZM3.9199 10.1082C1.1059 8.91252 1.33396 7.02565 1.33396 7.02565C0.979618 7.69014 1.73354 13.5035 4.66816 13.5035C5.97997 13.5035 7.08258 11.4514 3.9199 10.1082ZM3.9199 6.12486C1.1059 4.93446 1.33396 3.04227 1.33396 3.04227C0.979618 3.70853 1.73354 9.51838 4.66816 9.51838C5.97997 9.51838 7.08258 7.47161 3.9199 6.12486ZM7.82142 17.6077C10.7542 17.6077 11.5062 11.7961 11.1556 11.1299C11.1556 11.1299 11.3837 13.0167 8.56591 14.216C5.407 15.5539 6.50583 17.6077 7.82142 17.6077ZM3.9199 18.4215C1.1059 17.2222 1.33396 15.3353 1.33396 15.3353C0.979618 16.0016 1.73354 21.8132 4.66816 21.8132C5.97997 21.8132 7.08258 19.7611 3.9199 18.4215ZM7.82142 21.8132C10.7542 21.8132 11.5062 16.0016 11.1556 15.3353C11.1556 15.3353 11.3837 17.2222 8.56591 18.4215C5.407 19.7611 6.50583 21.8132 7.82142 21.8132ZM7.82142 13.5035C10.7542 13.5035 11.5062 7.69014 11.1556 7.02565C11.1556 7.02565 11.3837 8.91252 8.56591 10.1082C5.407 11.4514 6.50583 13.5035 7.82142 13.5035ZM7.82142 9.51838C10.7542 9.51838 11.5062 3.70853 11.1556 3.04227C11.1556 3.04227 11.3837 4.93269 8.56591 6.12308C5.407 7.47161 6.50583 9.51838 7.82142 9.51838ZM6.44929 6.43579C9.56108 6.43579 6.27777 0.181763 6.27777 0.181763C5.88196 0.769854 3.33749 6.43579 6.44929 6.43579ZM14.8611 26.5588L16.7384 23.462C16.8873 23.1635 16.3407 23.2452 15.828 23.0232C15.3078 22.7957 15.0289 22.3462 14.8819 22.6501L13.6021 26.1022C13.4362 26.4398 14.5124 27.2588 14.8611 26.5588ZM17.4075 14.6993C15.3945 12.4944 16.4425 10.874 16.4425 10.874C15.8224 11.336 13.9131 16.9095 16.5687 18.0732C17.7599 18.5956 19.6786 17.1725 17.4075 14.6993ZM19.2433 10.9717C17.2303 8.77216 18.2782 7.1518 18.2782 7.1518C17.6581 7.61374 15.7451 13.1855 18.4026 14.3528C19.5957 14.8734 21.5126 13.4538 19.2433 10.9717ZM21.0244 7.36323C19.0039 5.16721 20.0594 3.53975 20.0594 3.53975C19.4374 4.00169 17.5262 9.57168 20.1857 10.739C21.3768 11.2578 23.2918 9.84174 21.0244 7.36323ZM19.4336 19.3294C22.0931 20.4896 25.3726 15.5219 25.35 14.7757C25.35 14.7757 24.7148 16.579 21.6238 16.5453C18.1576 16.5097 18.2406 18.8035 19.4336 19.3294ZM15.5302 18.5121C13.5135 16.309 14.5614 14.6904 14.5614 14.6904C13.9432 15.1523 12.032 20.7241 14.6896 21.8843C15.8846 22.4066 17.7976 20.987 15.5302 18.5121ZM17.5526 23.1404C20.2102 24.3059 23.4916 19.3329 23.4709 18.5885C23.4709 18.5885 22.8338 20.3919 19.7446 20.3581C16.2785 20.3243 16.3614 22.6198 17.5526 23.1404ZM21.2675 15.6054C23.927 16.7691 27.2065 11.7943 27.1839 11.0535C27.1839 11.0535 26.5487 12.855 23.4595 12.8231C19.9915 12.7875 20.0745 15.0866 21.2675 15.6054ZM23.0487 11.9898C25.7081 13.1571 28.9858 8.18585 28.9631 7.43963C28.9631 7.43963 28.3242 9.24832 25.2388 9.20923C21.7727 9.17547 21.8575 11.471 23.0487 11.9898ZM23.1787 8.64779C26.0002 9.88261 25.8174 2.90901 25.8174 2.90901C25.1973 3.28923 20.3591 7.4112 23.1787 8.64779Z" fill="url(#paint0_linear_19_35513)"/>
</g>
<defs>
<linearGradient id="paint0_linear_19_35513" x1="15.1081" y1="0.181763" x2="15.1081" y2="26.8335" gradientUnits="userSpaceOnUse">
<stop stop-color="#AEB1B7"/>
<stop offset="0.405" stop-color="#E1E3E4"/>
<stop offset="1" stop-color="#ACADB0"/>
</linearGradient>
<clipPath id="clip0_19_35513">
<rect width="28.2738" height="26.6524" fill="white" transform="translate(0.97168 0.181763)"/>
</clipPath>
</defs>
</svg>
