<svg width="20" height="20" viewBox="0 0 20 20" fill="none" xmlns="http://www.w3.org/2000/svg">
<path d="M17.2812 6.34375L11.1562 0.96875C10.5 0.40625 9.5 0.40625 8.84375 0.96875L2.71875 6.34375C2.34375 6.6875 2.125 7.15625 2.125 7.65625V17.7188C2.125 18.6875 2.90625 19.4688 3.875 19.4688H6.5625C7.53125 19.4688 8.3125 18.6875 8.3125 17.7188V14.2188C8.3125 14.0312 8.46875 13.875 8.65625 13.875H11.3438C11.5312 13.875 11.6875 14.0312 11.6875 14.2188V17.6875C11.6875 18.6562 12.4688 19.4375 13.4375 19.4375H16.125C17.0938 19.4375 17.875 18.6562 17.875 17.6875V7.65625C17.875 7.15625 17.6562 6.65625 17.2812 6.34375ZM16.4688 17.7188C16.4688 17.9062 16.3125 18.0625 16.125 18.0625H13.4375C13.25 18.0625 13.0938 17.9062 13.0938 17.7188V14.2188C13.0938 13.25 12.3125 12.4688 11.3438 12.4688H8.65625C7.6875 12.4688 6.90625 13.25 6.90625 14.2188V17.6875C6.90625 17.875 6.75 18.0312 6.5625 18.0312H3.875C3.6875 18.0312 3.53125 17.875 3.53125 17.6875V7.65625C3.53125 7.5625 3.5625 7.46875 3.65625 7.40625L9.78125 2.03125C9.90625 1.90625 10.0938 1.90625 10.2188 2.03125L16.3438 7.375C16.4062 7.4375 16.4688 7.53125 16.4688 7.625V17.7188Z" fill="#EBEBEB"/>
<path d="M11.5937 6.09375C11.2187 6.09375 10.9063 6.40625 10.9063 6.78125V7.65625H9.125V6.78125C9.125 6.40625 8.8125 6.09375 8.4375 6.09375C8.0625 6.09375 7.75 6.40625 7.75 6.78125V10C7.75 10.375 8.0625 10.6875 8.4375 10.6875C8.8125 10.6875 9.125 10.375 9.125 10V9.125H10.9063V10C10.9063 10.375 11.2187 10.6875 11.5937 10.6875C11.9688 10.6875 12.2812 10.375 12.2812 10V6.8125C12.2812 6.40625 11.9688 6.09375 11.5937 6.09375Z" fill="#EBEBEB"/>
</svg>
