<svg width="22" height="22" viewBox="0 0 22 22" fill="none" xmlns="http://www.w3.org/2000/svg">
<path d="M19.4002 0.200012H2.6002C1.2802 0.200012 0.200195 1.28001 0.200195 2.60001V19.4C0.200195 20.7212 1.2802 21.8 2.6002 21.8H19.4002C20.7202 21.8 21.8002 20.7212 21.8002 19.4V2.60001C21.8002 1.28001 20.7202 0.200012 19.4002 0.200012ZM10.981 17.6276C12.7436 17.6273 14.434 16.9269 15.6802 15.6804C16.9265 14.4339 17.6266 12.7434 17.6266 10.9808C17.6266 10.5752 17.575 10.184 17.503 9.80001H19.4002V18.4592C19.4002 18.5683 19.3787 18.6762 19.3368 18.7769C19.295 18.8776 19.2337 18.969 19.1564 19.046C19.0791 19.1229 18.9874 19.1838 18.8866 19.2252C18.7857 19.2666 18.6776 19.2877 18.5686 19.2872H3.4318C3.32276 19.2877 3.2147 19.2666 3.11383 19.2252C3.01295 19.1838 2.92125 19.1229 2.84398 19.046C2.76671 18.969 2.7054 18.8776 2.66357 18.7769C2.62173 18.6762 2.60019 18.5683 2.6002 18.4592V9.80001H4.459C4.3858 10.184 4.3342 10.5752 4.3342 10.9808C4.33451 12.7436 5.0349 14.434 6.28135 15.6805C7.5278 16.9269 9.21825 17.6273 10.981 17.6276ZM6.8278 10.9808C6.8278 10.4354 6.93522 9.89534 7.14394 9.39145C7.35266 8.88756 7.65858 8.42972 8.04424 8.04406C8.4299 7.6584 8.88774 7.35247 9.39163 7.14376C9.89552 6.93504 10.4356 6.82761 10.981 6.82761C11.5264 6.82761 12.0665 6.93504 12.5704 7.14376C13.0742 7.35247 13.5321 7.6584 13.9178 8.04406C14.3034 8.42972 14.6093 8.88756 14.8181 9.39145C15.0268 9.89534 15.1342 10.4354 15.1342 10.9808C15.1342 12.0823 14.6966 13.1387 13.9178 13.9176C13.1389 14.6964 12.0825 15.134 10.981 15.134C9.8795 15.134 8.82312 14.6964 8.04424 13.9176C7.26536 13.1387 6.8278 12.0823 6.8278 10.9808ZM18.5686 6.20001H16.6306C16.4106 6.19938 16.1997 6.11169 16.0441 5.95609C15.8885 5.8005 15.8008 5.58965 15.8002 5.36961V3.42921C15.8002 2.97081 16.1722 2.60001 16.6294 2.60001H18.5674C19.0282 2.60001 19.4002 2.97081 19.4002 3.42921V5.36841C19.4002 5.82561 19.0282 6.20001 18.5686 6.20001Z" fill="#EBEBEB"/>
</svg>
