<svg width="34" height="42" viewBox="0 0 34 42" fill="none" xmlns="http://www.w3.org/2000/svg">
<path d="M18.8223 5.54054H17.9297C17.9297 5.54054 17.7669 5.54937 17.7669 5.42363C17.7669 5.18901 17.7669 4.48515 17.7669 4.48515C17.7669 4.06175 17.4238 3.7186 17.0005 3.7186C16.5772 3.7186 16.2341 4.06175 16.2341 4.48515C16.2341 4.48515 16.2341 5.14408 16.2341 5.36376C16.2341 5.54937 16.0435 5.54054 16.0435 5.54054H15.1786C14.7553 5.54054 14.4121 5.8837 14.4121 6.30698C14.4121 6.73027 14.7553 7.07343 15.1786 7.07343H16.0673C16.0673 7.07343 16.2339 7.05826 16.2339 7.23799C16.2339 7.46061 16.2339 8.12893 16.2339 8.12893C16.2339 8.55221 16.5771 8.89537 17.0004 8.89537C17.4237 8.89537 17.7668 8.55221 17.7668 8.12893C17.7668 8.12893 17.7668 7.45178 17.7668 7.22599C17.7668 7.07626 17.9596 7.07343 17.9596 7.07343H18.8223C19.2456 7.07343 19.5888 6.73027 19.5888 6.30698C19.5888 5.8837 19.2456 5.54054 18.8223 5.54054Z" fill="url(#paint0_linear_27_42887)"/>
<path d="M19.629 30.9337C19.5412 30.7215 19.2965 30.3656 18.6451 30.3656C18.2929 30.3656 17.8254 30.4615 17.4131 30.5462C17.2702 30.5755 17.0795 30.6146 16.997 30.6259C16.9156 30.616 16.7285 30.5809 16.5883 30.5546C16.1888 30.4796 15.7358 30.3946 15.3903 30.3946C14.7262 30.3946 14.4792 30.7512 14.3911 30.9639C14.3035 31.1755 14.2251 31.5992 14.6848 32.0589C15.5375 32.9116 16.3165 33.3439 17.0001 33.3439C17.8382 33.3439 19.1469 32.2273 19.3154 32.0589C19.7951 31.5791 19.7179 31.1479 19.629 30.9337Z" fill="url(#paint1_linear_27_42887)"/>
<path d="M11.3403 21.481C9.99966 21.1012 9.28483 21.3747 8.76285 21.5742C8.43135 21.7011 8.3253 21.7346 8.08695 21.6671C7.66615 21.5479 7.22804 21.7924 7.10875 22.2134C6.98946 22.6343 7.22849 23.0939 7.65506 23.1916C8.0934 23.292 8.44765 23.2913 8.73048 23.2422C8.94359 23.169 8.92549 23.3004 8.93216 23.3515C9.03233 24.1187 9.77681 24.6968 10.7103 24.6968C11.3449 24.6968 11.86 24.4028 12.2082 24.0169C12.3413 23.8693 12.4228 23.9445 12.4246 23.9462C12.5784 24.0948 12.6728 24.0845 12.871 24.0845C13.0783 24.0845 13.2853 24.0037 13.4407 23.8428C13.7448 23.5282 13.7362 23.0267 13.4217 22.7226C13.0418 22.3553 12.4677 21.8005 11.3403 21.481Z" fill="url(#paint2_linear_27_42887)"/>
<path d="M26.8914 22.2134C26.7721 21.7924 26.3342 21.5477 25.9132 21.6671C25.6749 21.7344 25.5688 21.701 25.2373 21.5742C24.7155 21.3745 24.0006 21.1011 22.66 21.481C21.5324 21.8005 20.9584 22.3554 20.5786 22.7225C20.2639 23.0266 20.2554 23.5281 20.5596 23.8427C20.7151 24.0035 20.9221 24.0844 21.1293 24.0844C21.3275 24.0844 21.4258 24.0916 21.5796 23.9429C21.5814 23.9412 21.6833 23.8762 21.7984 24.0247C22.1153 24.4331 22.6595 24.6966 23.29 24.6966C24.217 24.6966 24.9578 24.1265 25.0661 23.3673C25.0741 23.311 25.0998 23.183 25.2151 23.2303C25.5512 23.3262 25.8211 23.34 26.3452 23.1915C26.7661 23.0723 27.0107 22.6343 26.8914 22.2134Z" fill="url(#paint3_linear_27_42887)"/>
<path d="M29.9235 11.7631C29.4642 11.0876 28.9557 10.4699 28.3995 9.9091C28.3022 9.81097 28.0637 9.58054 28.1945 9.19426L28.8018 6.36537C28.9994 5.44523 28.4733 4.44168 27.6042 4.08076L18.3159 0.222961C17.9697 0.0791116 17.5249 0 17.0636 0C16.609 0 16.1703 0.0773008 15.8284 0.217415L6.4013 4.08359C5.52904 4.44134 5.00083 5.44365 5.19878 6.36526L5.86574 9.47257C5.96579 9.7786 5.77497 10.0224 5.69054 10.1103C5.20693 10.6137 4.75569 11.1605 4.33863 11.7521C2.06793 14.9727 0.867676 19.484 0.867676 24.7986C0.867676 31.56 1.51607 35.9428 2.90828 38.5915C4.14736 40.9489 5.95266 42.0001 8.76197 42C9.93507 42 11.1792 41.8254 12.4964 41.6405C13.9475 41.4369 15.448 41.2264 17.0002 41.2264C18.5235 41.2264 19.9971 41.421 21.4222 41.6091C22.7205 41.7804 23.9466 41.9424 25.1056 41.9424C27.026 41.9424 29.437 41.5586 31.0495 38.5658C32.4709 35.9278 33.1329 31.5531 33.1329 24.7986C33.1329 19.2804 32.053 14.8946 29.9235 11.7631ZM7.0025 5.54958L16.4296 1.68341C16.5807 1.62151 16.8177 1.58438 17.0635 1.58438C17.3136 1.58438 17.5547 1.62241 17.7081 1.68613L26.9965 5.54392C27.1607 5.61217 27.2899 5.85867 27.2526 6.03251L26.1304 11.2597C26.1003 11.3997 25.9361 11.5167 25.7921 11.4961L18.1188 10.4229C17.8152 10.3805 17.418 10.3571 17.0002 10.3571C16.5825 10.3571 16.1852 10.3805 15.8817 10.4229L8.20808 11.4961C8.06457 11.5168 7.89989 11.3998 7.8699 11.2597L6.74785 6.03251C6.71084 5.86026 6.8393 5.61647 7.0025 5.54958ZM17.0002 37.8288C15.6922 37.8288 12.9051 36.5216 10.316 34.0988C8.61552 32.5075 5.76264 29.2298 5.76264 25.1564C5.76264 24.0164 5.86099 22.4244 6.2699 20.7527C6.46683 20.1173 6.7105 19.431 7.41809 18.7998C8.05518 18.2315 9.04424 17.6837 9.94163 17.1554C10.4029 16.8839 10.88 16.6031 11.3723 16.3269C12.9072 15.4655 13.9447 13.9096 14.2843 13.9096C14.7012 13.9096 15.6051 14.6719 15.7382 14.8008C17.375 16.3858 18.9404 17.609 20.3603 18.5354C22.5609 19.9713 25.487 20.9943 27.7758 21.724C27.9155 21.7686 28.0147 22.1998 28.0867 22.7051C28.2024 23.6307 28.2379 24.4747 28.2379 25.1565C28.2378 32.127 19.7534 37.8288 17.0002 37.8288Z" fill="url(#paint4_linear_27_42887)"/>
<defs>
<linearGradient id="paint0_linear_27_42887" x1="17.0004" y1="3.7186" x2="17.0004" y2="8.89537" gradientUnits="userSpaceOnUse">
<stop stop-color="#AEB1B7"/>
<stop offset="0.405" stop-color="#E1E3E4"/>
<stop offset="1" stop-color="#ACADB0"/>
</linearGradient>
<linearGradient id="paint1_linear_27_42887" x1="17.0098" y1="30.3656" x2="17.0098" y2="33.3439" gradientUnits="userSpaceOnUse">
<stop stop-color="#AEB1B7"/>
<stop offset="0.405" stop-color="#E1E3E4"/>
<stop offset="1" stop-color="#ACADB0"/>
</linearGradient>
<linearGradient id="paint2_linear_27_42887" x1="10.3707" y1="21.2909" x2="10.3707" y2="24.6968" gradientUnits="userSpaceOnUse">
<stop stop-color="#AEB1B7"/>
<stop offset="0.405" stop-color="#E1E3E4"/>
<stop offset="1" stop-color="#ACADB0"/>
</linearGradient>
<linearGradient id="paint3_linear_27_42887" x1="23.6293" y1="21.2908" x2="23.6293" y2="24.6966" gradientUnits="userSpaceOnUse">
<stop stop-color="#AEB1B7"/>
<stop offset="0.405" stop-color="#E1E3E4"/>
<stop offset="1" stop-color="#ACADB0"/>
</linearGradient>
<linearGradient id="paint4_linear_27_42887" x1="17.0003" y1="0" x2="17.0003" y2="42" gradientUnits="userSpaceOnUse">
<stop stop-color="#AEB1B7"/>
<stop offset="0.405" stop-color="#E1E3E4"/>
<stop offset="1" stop-color="#ACADB0"/>
</linearGradient>
</defs>
</svg>
