<svg width="40" height="42" viewBox="0 0 40 42" fill="none" xmlns="http://www.w3.org/2000/svg">
<path d="M35.2564 4.10371e-07C34.2831 -0.00065584 33.4932 0.78586 33.4932 1.75924C33.4919 2.73197 34.279 3.52045 35.2517 3.52177C36.2244 3.52316 37.0136 2.73525 37.0149 1.76187C37.0156 0.789962 36.2291 0.00065666 35.2564 4.10371e-07Z" fill="url(#paint0_linear_27_42875)"/>
<path d="M35.5624 8.39238C35.5631 7.81997 35.1005 7.35551 34.5288 7.35477C33.9565 7.35477 33.4919 7.818 33.4912 8.39041C33.4912 8.96266 33.9538 9.42663 34.5261 9.42663C35.0985 9.42794 35.5624 8.96406 35.5624 8.39238Z" fill="url(#paint1_linear_27_42875)"/>
<path d="M37.8101 4.5661C37.1259 4.56471 36.5703 5.11768 36.5703 5.80108C36.5697 6.48523 37.1239 7.03951 37.808 7.04156C38.4908 7.04156 39.0458 6.48867 39.0472 5.80379C39.0477 5.12096 38.4941 4.5661 37.8101 4.5661Z" fill="url(#paint2_linear_27_42875)"/>
<path d="M7.10933 35.8435C11.4973 40.2307 18.6359 40.2307 23.0231 35.8435C24.7697 34.0963 25.8722 31.8846 26.2109 29.4453C26.3293 28.5911 26.3467 27.7262 26.2685 26.8707H3.86541C3.5769 30.0805 4.65791 33.3914 7.10933 35.8435ZM18.9204 30.7292C19.3923 30.7292 19.7739 31.1121 19.7739 31.5833C19.7739 32.0553 19.3923 32.4368 18.9204 32.4368C18.4492 32.4368 18.0662 32.0553 18.0662 31.5833C18.0662 31.1121 18.4492 30.7292 18.9204 30.7292ZM15.3162 34.7831C15.9382 34.7831 16.4428 35.2872 16.4428 35.9091C16.4428 36.531 15.9382 37.0351 15.3162 37.0351C14.6944 37.0351 14.1904 36.531 14.1904 35.9091C14.1904 35.2872 14.6944 34.7831 15.3162 34.7831ZM11.0655 30.1046C11.8314 30.1046 12.4519 30.7252 12.4519 31.491C12.4519 32.2567 11.8314 32.8766 11.0655 32.8766C10.3004 32.8766 9.67912 32.2567 9.67912 31.491C9.67912 30.7252 10.3004 30.1046 11.0655 30.1046Z" fill="url(#paint3_linear_27_42875)"/>
<path d="M30.3108 7.64202L30.264 7.5951C29.8027 7.13252 29.1802 6.87478 28.5269 6.87552C27.8742 6.87486 27.2503 7.13261 26.7898 7.5951C26.3279 8.05636 26.0689 8.6789 26.0695 9.33293C26.0695 9.40856 26.0742 9.48288 26.0802 9.55712L20.6955 14.9426C18.9269 14.1754 17.0043 13.7738 15.065 13.7738C11.2983 13.7724 7.74917 15.2425 5.08619 17.906C2.42198 20.5689 0.951981 24.1195 0.952637 27.8863C0.951981 31.653 2.42198 35.2035 5.08619 37.8664C7.74909 40.5307 11.2996 42.0007 15.0664 42.0001C18.8332 42.0007 22.3838 40.5307 25.0467 37.8664C27.2356 35.6788 28.6206 32.8975 29.0444 29.8389C29.1334 29.199 29.1776 28.553 29.1776 27.9097C29.1776 25.969 28.7786 24.0345 28.0095 22.2579L33.3955 16.8725C33.4698 16.8786 33.5448 16.8832 33.6198 16.8832C34.2738 16.8838 34.8964 16.6254 35.3575 16.1636C35.798 15.7245 36.0524 15.1387 36.0745 14.5203L36.0772 14.5148V14.4258C36.0778 13.7725 35.8201 13.1499 35.3575 12.6887L30.3108 7.64202ZM26.1103 21.9358C28.6721 26.6866 27.9485 32.7421 23.9355 36.7552C21.486 39.2053 18.277 40.4289 15.0664 40.4289C11.8566 40.4289 8.64618 39.2046 6.19747 36.7552C1.29873 31.8571 1.29873 23.916 6.19747 19.0172C8.64618 16.5678 11.8553 15.3442 15.065 15.3442C17.1148 15.3442 19.1652 15.8442 21.0167 16.8423L27.3066 10.5532L32.3994 15.6461L26.1103 21.9358ZM34.2463 15.0523C34.0736 15.2257 33.8473 15.312 33.6198 15.312C33.4993 15.312 33.3788 15.2859 33.2656 15.237L33.2817 15.2216L27.7572 9.69699L27.7324 9.72176C27.5704 9.39175 27.6253 8.98069 27.9004 8.70621C28.0738 8.53288 28.3001 8.4465 28.527 8.4465C28.7539 8.4465 28.9808 8.53288 29.1535 8.70621L34.2463 13.799C34.5923 14.1453 34.5931 14.7056 34.2463 15.0523Z" fill="url(#paint4_linear_27_42875)"/>
<defs>
<linearGradient id="paint0_linear_27_42875" x1="35.254" y1="0" x2="35.254" y2="3.52177" gradientUnits="userSpaceOnUse">
<stop stop-color="#AEB1B7"/>
<stop offset="0.405" stop-color="#E1E3E4"/>
<stop offset="1" stop-color="#ACADB0"/>
</linearGradient>
<linearGradient id="paint1_linear_27_42875" x1="34.5268" y1="7.35477" x2="34.5268" y2="9.42663" gradientUnits="userSpaceOnUse">
<stop stop-color="#AEB1B7"/>
<stop offset="0.405" stop-color="#E1E3E4"/>
<stop offset="1" stop-color="#ACADB0"/>
</linearGradient>
<linearGradient id="paint2_linear_27_42875" x1="37.8087" y1="4.5661" x2="37.8087" y2="7.04156" gradientUnits="userSpaceOnUse">
<stop stop-color="#AEB1B7"/>
<stop offset="0.405" stop-color="#E1E3E4"/>
<stop offset="1" stop-color="#ACADB0"/>
</linearGradient>
<linearGradient id="paint3_linear_27_42875" x1="15.068" y1="26.8707" x2="15.068" y2="39.1339" gradientUnits="userSpaceOnUse">
<stop stop-color="#AEB1B7"/>
<stop offset="0.405" stop-color="#E1E3E4"/>
<stop offset="1" stop-color="#ACADB0"/>
</linearGradient>
<linearGradient id="paint4_linear_27_42875" x1="18.5149" y1="6.87552" x2="18.5149" y2="42.0001" gradientUnits="userSpaceOnUse">
<stop stop-color="#AEB1B7"/>
<stop offset="0.405" stop-color="#E1E3E4"/>
<stop offset="1" stop-color="#ACADB0"/>
</linearGradient>
</defs>
</svg>
