<svg width="20" height="20" viewBox="0 0 20 20" fill="none" xmlns="http://www.w3.org/2000/svg">
<g clip-path="url(#clip0_22_39593)">
<path d="M19.3128 9.43738C19.1878 9.34363 19.0003 9.34363 18.8753 9.40613C18.7503 9.43738 18.6566 9.53113 18.4691 9.62488C18.4691 9.53113 18.4691 9.49988 18.4691 9.40613C18.4691 7.03113 18.4691 4.68738 18.4691 2.31238C18.4691 1.84363 18.3753 1.40613 18.0316 0.999878C17.8128 0.656128 17.4066 0.468628 17.0316 0.374878C17.0003 0.374878 17.0003 0.343628 16.9378 0.343628C12.2503 0.343628 7.65656 0.343628 2.96905 0.343628C2.7503 0.406128 2.53155 0.499878 2.3128 0.624878C1.8128 0.937378 1.5628 1.37488 1.46905 1.93738C1.46905 2.12488 1.46905 2.28113 1.46905 2.46863C1.46905 4.78113 1.46905 7.12488 1.46905 9.43738C1.46905 9.46863 1.46905 9.53113 1.46905 9.65613C1.4378 9.62488 1.3753 9.62488 1.28155 9.56238C1.1878 9.49988 1.0628 9.43738 0.96905 9.43738C0.71905 9.34363 0.5003 9.53113 0.53155 9.84363C0.5628 10.0311 0.6253 10.1874 0.71905 10.2811C1.15655 10.8124 1.71905 11.2811 2.34405 11.6874C3.03155 12.1249 3.75031 12.5311 4.50031 12.8749C4.53156 12.9061 4.53156 12.9061 4.59406 12.9061C4.56281 13.1561 4.46906 13.4374 4.40656 13.6874C4.28156 14.3749 4.15656 15.0936 4.21906 15.7811C4.25031 16.6561 4.53156 17.4999 5.06281 18.2499C5.59406 18.9999 6.34406 19.4686 7.25031 19.5936C7.28156 19.5936 7.34406 19.6249 7.37531 19.6249C7.56281 19.6249 7.78156 19.6249 7.93781 19.6249C8.12531 19.5936 8.28156 19.5311 8.46906 19.4999C9.15656 19.2811 9.68781 18.5936 9.68781 17.8436C9.71906 16.6249 9.71906 15.3749 9.71906 14.2186C9.71906 14.1874 9.71906 14.0936 9.71906 13.9999C9.90656 14.0311 10.0316 14.0936 10.1566 14.1249C10.1878 14.1561 10.1878 14.2186 10.1878 14.2499C10.1878 15.2499 10.1878 16.3124 10.2191 17.3749C10.2191 17.7186 10.2191 18.0311 10.3128 18.3749C10.5316 19.1249 11.0941 19.4999 11.8128 19.6561C11.8441 19.6561 11.9066 19.6874 11.9378 19.6874C12.1253 19.6874 12.3441 19.6874 12.5003 19.6874C12.8441 19.5936 13.1878 19.4999 13.5003 19.3436C14.2816 18.9999 14.8128 18.3436 15.1566 17.5936C15.5941 16.6249 15.6878 15.6249 15.5628 14.5624C15.5316 14.0936 15.3753 13.5936 15.3128 13.1249C15.3128 13.0936 15.2816 13.0311 15.2816 12.9999C15.5316 12.8749 15.8128 12.7811 16.0628 12.6561C16.9691 12.2186 17.9066 11.6561 18.6566 10.9999C18.8753 10.7811 19.0941 10.4686 19.3128 10.2499C19.3441 10.2186 19.3441 10.1249 19.3441 10.0624C19.5003 9.68738 19.4378 9.53113 19.3128 9.43738ZM17.4378 10.3124C16.6878 10.6561 16.0003 10.9686 15.2503 11.1561C14.1566 11.3749 13.0628 11.4686 11.9691 11.3749C11.7191 11.3436 11.4066 11.3436 11.1253 11.4061C10.6878 11.4374 10.3753 11.7186 10.3441 12.1874C10.3441 12.2186 10.3128 12.2186 10.3128 12.2811C10.0628 12.0624 9.78156 11.8436 9.53156 11.6249C9.31281 11.4374 9.09406 11.4061 8.84406 11.4061C8.21906 11.4061 7.56281 11.4374 6.96906 11.4374C5.46906 11.4061 4.12531 11.0936 2.7503 10.4374C2.71905 10.4061 2.65655 10.3436 2.65655 10.2499C2.65655 7.78112 2.65655 5.28113 2.6878 2.84363C2.6878 2.59363 2.71905 2.37488 2.8128 2.09363C2.90655 1.68738 3.21906 1.53113 3.56281 1.43738C3.78156 1.40613 4.03156 1.40613 4.25031 1.40613C8.15656 1.40613 12.0941 1.40613 16.0003 1.40613C16.3128 1.40613 16.6253 1.40613 16.9066 1.53113C17.3128 1.71863 17.4691 1.99988 17.5628 2.40613C17.5941 2.62488 17.5941 2.93738 17.5941 3.15612C17.5941 5.46862 17.5941 7.81238 17.5941 10.1249C17.5941 10.1874 17.5628 10.2186 17.4378 10.3124Z" fill="#EBEBEB"/>
<path d="M5.56321 7.06235C5.09446 7.68735 5.00072 8.4061 5.34447 9.12485C5.78197 9.99985 6.53196 10.4061 7.40696 10.4373C7.96946 10.4061 8.46947 10.2498 8.90697 9.99985C10.0007 9.24985 10.0945 7.68735 9.12571 6.74985C8.06321 5.74985 6.37571 5.87485 5.56321 7.06235Z" fill="#EBEBEB"/>
<path d="M14.3122 6.59353C13.2185 5.81228 11.7185 6.03103 10.9685 7.03103C10.4997 7.68728 10.406 8.43728 10.7497 9.18728C11.1872 10.0623 11.9372 10.406 12.8122 10.4685C13.4685 10.4373 14.031 10.2498 14.4685 9.84353C15.4685 8.93728 15.3747 7.31228 14.3122 6.59353Z" fill="#EBEBEB"/>
</g>
<defs>
<clipPath id="clip0_22_39593">
<rect width="20" height="20" fill="white"/>
</clipPath>
</defs>
</svg>
