<svg width="46" height="50" viewBox="0 0 46 50" fill="none" xmlns="http://www.w3.org/2000/svg">
<path d="M16.5 0.79258L18.125 4.2457H27.875L29.5 0.79258H16.5ZM15.5859 6.17539V11.4516H18.8359V13.7063C16.8758 12.7922 14.5094 12.8734 13.25 12.8734C8.12109 12.8734 4.91172 15.0977 3.14453 17.7484C1.37734 20.3992 0.960938 23.3852 0.960938 25.1625C0.960938 30.4945 4.88125 34.75 9.42109 38.4672C13.9609 42.1742 19.2422 45.4445 22.35 48.5625L23 49.2023L23.65 48.5625C26.7578 45.4445 32.0391 42.1742 36.5789 38.4672C41.1188 34.75 45.0391 30.4945 45.0391 25.1625C45.0391 23.3852 44.6227 20.3992 42.8555 17.7484C41.0883 15.0977 37.8789 12.8734 32.75 12.8734C31.4906 12.8734 29.1242 12.7922 27.1641 13.7063V11.4516H30.4141V6.17539H15.5859ZM17.4141 8.00352H28.5859V9.62344H17.4141V8.00352ZM20.6641 11.4516H25.3359V17.6164L26.9 16.0625C28.0883 14.8641 31.125 14.7016 32.75 14.7016C37.3711 14.7016 39.8492 16.5398 41.332 18.7641C42.8148 20.9883 43.2109 23.6898 43.2109 25.1625C43.2109 29.5805 39.8187 33.4602 35.4211 37.0453C31.2875 40.4375 26.382 43.4945 23 46.6633C19.618 43.4945 14.7125 40.4375 10.5789 37.0453C6.18125 33.4602 2.78906 29.5805 2.78906 25.1625C2.78906 23.6898 3.18516 20.9883 4.66797 18.7641C6.15078 16.5398 8.62891 14.7016 13.25 14.7016C14.875 14.7016 17.9117 14.8641 19.1 16.0625L20.6641 17.6164V11.4516ZM16.5 18.6625C10 18.6625 8.375 23.5375 8.375 26.7875C8.375 33.2875 16.5 36.5375 23 41.4125C29.5 36.5375 37.625 33.2875 37.625 26.7875C37.625 23.5375 36 18.6625 29.5 18.6625C26.25 18.6625 24.625 18.6625 23 23.5375C21.375 18.6625 19.75 18.6625 16.5 18.6625ZM29.2664 20.1453C29.632 20.1352 29.8656 20.1758 29.8555 20.2063C28.1797 20.9477 26.4125 22.6844 25.3258 24.4414C25.3258 24.4414 25.0008 22.6438 26.3312 21.2016C27.0828 20.3789 28.4742 20.1555 29.2664 20.1453ZM16.5 20.2875C14.0625 22.4711 12.3055 26.1984 11.7063 29.4688C11.7063 29.4688 9.72578 27.0617 10.9242 24.0453C11.9195 21.557 16.0125 20.3383 16.5 20.2875Z" fill="url(#paint0_linear_23_40503)"/>
<defs>
<linearGradient id="paint0_linear_23_40503" x1="23" y1="0.79258" x2="23" y2="49.2023" gradientUnits="userSpaceOnUse">
<stop stop-color="#AEB1B7"/>
<stop offset="0.405" stop-color="#E1E3E4"/>
<stop offset="1" stop-color="#ACADB0"/>
</linearGradient>
</defs>
</svg>
