<svg width="20" height="20" viewBox="0 0 20 20" fill="none" xmlns="http://www.w3.org/2000/svg">
<path d="M8.4375 7.39583C8.4375 6.53289 9.13708 5.83333 10 5.83333C10.8629 5.83333 11.5625 6.53289 11.5625 7.39583C11.5625 7.9687 11.2542 8.46958 10.7945 8.74158C10.3983 8.97591 10 9.33141 10 9.79166V10.8333" stroke="white" stroke-linecap="round"/>
<path d="M9.99984 14.1667C10.4601 14.1667 10.8332 13.7936 10.8332 13.3333C10.8332 12.8731 10.4601 12.5 9.99984 12.5C9.5396 12.5 9.1665 12.8731 9.1665 13.3333C9.1665 13.7936 9.5396 14.1667 9.99984 14.1667Z" fill="white"/>
<path d="M18.3332 10C18.3332 13.9283 18.3332 15.8926 17.1128 17.1129C15.8924 18.3333 13.9282 18.3333 9.99984 18.3333C6.07146 18.3333 4.10728 18.3333 2.8869 17.1129C1.6665 15.8926 1.6665 13.9283 1.6665 10C1.6665 6.07163 1.6665 4.10745 2.8869 2.88706C4.10728 1.66667 6.07146 1.66667 9.99984 1.66667C13.9282 1.66667 15.8924 1.66667 17.1128 2.88706C17.9243 3.69851 18.1962 4.8388 18.2873 6.66667" stroke="white" stroke-linecap="round"/>
</svg>
