<svg width="42" height="42" viewBox="0 0 42 42" fill="none" xmlns="http://www.w3.org/2000/svg">
<path d="M0.00204086 36.5006C0.018364 35.8479 0.284721 35.2278 0.745243 34.768C0.774117 34.7384 0.804306 34.7102 0.834496 34.6825L0.845158 34.673L0.855824 34.663C0.855824 34.663 0.924236 34.6046 1.04925 34.4965C1.48714 34.1158 2.61227 33.1359 3.83791 32.0409C4.44986 31.4938 5.08683 30.9182 5.67483 30.3755C6.2616 29.8339 6.79997 29.3239 7.20766 28.9155C7.24031 28.8829 7.27239 28.8508 7.30315 28.82C7.47591 28.6448 7.59157 28.4808 7.67319 28.3294C7.79444 28.1001 7.84398 27.8928 7.85785 27.683C7.87106 27.4757 7.84341 27.2672 7.79189 27.0793C7.54498 26.1646 7.13983 24.961 6.79242 23.5519C6.27161 21.4361 5.88278 18.8296 6.37521 15.9047C6.6209 14.4435 7.08765 12.9062 7.85407 11.3238C8.62106 9.74064 9.68657 8.11355 11.1239 6.46135C11.4286 6.11084 11.7439 5.77221 12.07 5.44679C15.3128 2.20467 19.5426 0.220089 23.9596 0.0172256C26.1665 -0.0845752 28.418 0.263483 30.5929 1.11907C32.7678 1.97277 34.8622 3.33416 36.7639 5.23638C38.6661 7.13795 40.0268 9.23245 40.8818 11.4073C42.1651 14.6702 42.3027 18.1022 41.5049 21.3055C40.7078 24.5119 38.9858 27.4978 36.5534 29.9302C36.2274 30.2562 35.8894 30.5716 35.5388 30.8762C33.3369 32.7929 31.1765 34.0487 29.1109 34.8157C27.5611 35.3912 26.0678 35.6915 24.6606 35.8008C22.5486 35.9667 20.635 35.7052 18.9879 35.3347C18.1643 35.15 17.406 34.9377 16.7238 34.7373C16.0423 34.5362 15.4341 34.3471 14.9208 34.2077C14.6696 34.1398 14.3856 34.1134 14.1073 34.17C13.9659 34.1976 13.8233 34.246 13.6713 34.3276C13.5187 34.4087 13.3553 34.5242 13.1807 34.6971C13.1493 34.7278 13.1173 34.7599 13.0846 34.7926C12.6184 35.2587 12.0191 35.8944 11.3903 36.5798C10.4461 37.6088 9.43088 38.7521 8.65322 39.6361C8.26439 40.0783 7.93455 40.4559 7.70264 40.7229C7.58641 40.8567 7.49477 40.9616 7.43194 41.0338C7.36976 41.1061 7.33711 41.1444 7.33711 41.1444L7.32768 41.1544L7.31882 41.1651C7.2906 41.1959 7.26173 41.226 7.23219 41.255C6.77233 41.7148 6.15233 41.9818 5.49953 41.9982L5.43111 42.0001L5.49895 41.9982C4.80481 42.0151 4.13322 41.7468 3.64193 41.2556L0.744587 38.3583C0.253304 37.867 -0.0142822 37.1954 0.00204086 36.5013L0.000812531 36.5447L0.00204086 36.5006ZM2.39112 36.7117L5.28781 39.609C5.32866 39.6492 5.38395 39.6724 5.44178 39.6706C5.49707 39.6693 5.54858 39.6467 5.58681 39.609L5.58747 39.6084C5.70248 39.4746 6.62278 38.4122 7.75793 37.1338C8.3648 36.451 9.03327 35.7052 9.67525 35.0061C10.3173 34.3063 10.9305 33.6542 11.4381 33.146C11.4739 33.1108 11.5091 33.0757 11.5442 33.041C11.8684 32.7201 12.2171 32.4644 12.5739 32.2734C13.111 31.9863 13.6645 31.8494 14.1708 31.8185C14.6784 31.7871 15.1389 31.8549 15.5309 31.9618C16.551 32.2389 17.7045 32.6283 19.0048 32.9474C20.5578 33.3287 22.303 33.6102 24.2121 33.497L8.50557 17.7905C8.40499 19.4974 8.61672 21.0767 8.93656 22.5021C9.10554 23.2516 9.30209 23.9589 9.49691 24.6191C9.691 25.2807 9.88197 25.8945 10.039 26.4699C10.1804 26.9907 10.2551 27.639 10.1138 28.3489C10.0427 28.7027 9.91773 29.0688 9.72676 29.4257C9.53637 29.7838 9.2801 30.1318 8.95969 30.456C8.9245 30.4912 8.88931 30.5264 8.85354 30.5615C8.34593 31.0697 7.69321 31.6828 6.99398 32.3255C4.98306 34.1705 2.58767 36.2443 2.39169 36.4133L2.39104 36.4139C2.3533 36.4523 2.33066 36.5044 2.32951 36.5584C2.32829 36.6163 2.35027 36.6715 2.39112 36.7117Z" fill="url(#paint0_linear_27_42899)"/>
<defs>
<linearGradient id="paint0_linear_27_42899" x1="21.0004" y1="3.05176e-05" x2="21.0004" y2="42.0001" gradientUnits="userSpaceOnUse">
<stop stop-color="#AEB1B7"/>
<stop offset="0.405" stop-color="#E1E3E4"/>
<stop offset="1" stop-color="#ACADB0"/>
</linearGradient>
</defs>
</svg>
