<svg width="24" height="24" viewBox="0 0 24 24" fill="none" xmlns="http://www.w3.org/2000/svg">
<g clip-path="url(#clip0_13_3242)">
<path d="M21.0008 3.00095H20.9992L23.6791 3.53661C23.823 3.56539 23.9413 3.67093 23.9829 3.81324C24.0039 3.88236 24.0058 3.95589 23.9883 4.026C23.9708 4.0961 23.9347 4.16017 23.8838 4.21138L21.6884 6.40838C21.4257 6.67056 21.0697 6.81778 20.6986 6.81772H18.8789L14.3059 11.3924C14.3931 11.7218 14.4092 12.0661 14.3529 12.4022C14.2967 12.7383 14.1695 13.0586 13.9798 13.3417C13.7901 13.6248 13.5422 13.8642 13.2527 14.044C12.9632 14.2238 12.6387 14.3398 12.3009 14.3843C11.963 14.4289 11.6196 14.4009 11.2933 14.3023C10.9671 14.2037 10.6657 14.0367 10.4091 13.8125C10.1525 13.5883 9.9466 13.3119 9.80516 13.0019C9.66373 12.6918 9.59 12.3552 9.58887 12.0144C9.58911 11.6465 9.67394 11.2835 9.83681 10.9536C9.99968 10.6237 10.2362 10.3356 10.5282 10.1116C10.8201 9.8877 11.1596 9.73388 11.5205 9.66207C11.8814 9.59026 12.2539 9.60238 12.6093 9.69748L17.184 5.1212V3.30316C17.184 2.9322 17.3311 2.57562 17.5934 2.31339L19.7904 0.116391C19.8416 0.06543 19.9056 0.0293002 19.9757 0.0118439C20.0459 -0.00561235 20.1194 -0.00374258 20.1885 0.0172545C20.3308 0.058828 20.4364 0.177152 20.4651 0.321061L21.0008 3.00095Z" fill="#EBEBEB"/>
<path d="M2.39331 12.0144C2.39495 13.3863 2.69079 14.7418 3.26086 15.9896C3.83094 17.2374 4.66199 18.3485 5.69796 19.2478C6.73394 20.1471 7.95073 20.8138 9.26626 21.2029C10.5818 21.592 11.9655 21.6944 13.324 21.5032C14.6824 21.3121 15.9841 20.8318 17.1412 20.0948C18.2983 19.3578 19.2839 18.3812 20.0315 17.231C20.779 16.0807 21.2712 14.7834 21.4748 13.4268C21.6784 12.0701 21.5887 10.6855 21.2117 9.3665C21.1588 9.21239 21.1378 9.04913 21.15 8.88664C21.1621 8.72416 21.2073 8.56585 21.2826 8.42136C21.3579 8.27687 21.4618 8.14922 21.5881 8.04618C21.7143 7.94314 21.8601 7.86687 22.0168 7.822C22.1734 7.77714 22.3376 7.76462 22.4992 7.78522C22.6608 7.80581 22.8166 7.85909 22.957 7.9418C23.0974 8.02451 23.2195 8.13493 23.3158 8.26632C23.4122 8.39773 23.4808 8.54736 23.5174 8.70612C24.2474 11.2605 24.1088 13.985 23.1232 16.4521C22.1377 18.9192 20.361 20.9894 18.072 22.3378C15.7829 23.6862 13.111 24.2365 10.4754 23.9025C7.83985 23.5685 5.3897 22.369 3.5094 20.4922C1.63114 18.6124 0.43036 16.162 0.0955789 13.5258C-0.239202 10.8896 0.310976 8.21685 1.65973 5.92721C3.00849 3.63756 5.07945 1.86066 7.54746 0.875496C10.0155 -0.109672 12.7408 -0.24732 15.2955 0.48416C15.5997 0.573082 15.8563 0.778801 16.0093 1.05636C16.1623 1.33392 16.1991 1.66074 16.1119 1.96542C16.0246 2.27009 15.8203 2.52784 15.5436 2.68233C15.2669 2.83682 14.9403 2.87549 14.6351 2.78989C13.2065 2.38002 11.7023 2.30758 10.241 2.57829C8.77964 2.849 7.40116 3.45546 6.21422 4.34985C5.02728 5.24425 4.06431 6.40213 3.40124 7.73221C2.73817 9.06229 2.39313 10.5282 2.39331 12.0144Z" fill="#EBEBEB"/>
<path d="M7.19025 12.0144C7.19035 12.8884 7.42906 13.7458 7.88063 14.494C8.33221 15.2423 8.97952 15.8531 9.75273 16.2605C10.5259 16.668 11.3957 16.8566 12.2682 16.806C13.1408 16.7554 13.9829 16.4675 14.7039 15.9735C15.4247 15.4782 15.9964 14.7952 16.3571 13.9985C16.7178 13.2018 16.8539 12.3216 16.7506 11.4532C16.7226 11.2424 16.7513 11.028 16.8338 10.8321C16.9162 10.6361 17.0494 10.4657 17.2196 10.3383C17.3898 10.2109 17.5909 10.1312 17.8022 10.1074C18.0134 10.0836 18.2272 10.1165 18.4215 10.2028C18.6158 10.2879 18.784 10.423 18.909 10.5944C19.034 10.7657 19.1113 10.9672 19.133 11.1781C19.3068 12.6621 19.0142 14.1634 18.296 15.4736C17.5778 16.7838 16.4695 17.838 15.1249 18.4897C13.7804 19.1414 12.2664 19.3584 10.7929 19.1106C9.31945 18.8627 7.9597 18.1623 6.90238 17.1066C5.84505 16.0509 5.1426 14.6922 4.89252 13.2191C4.64244 11.7461 4.85714 10.2317 5.50682 8.88615C6.1565 7.54064 7.20893 6.43074 8.51804 5.71052C9.82714 4.9903 11.328 4.69547 12.8123 4.86695C12.9712 4.8817 13.1256 4.92802 13.2664 5.00321C13.4072 5.0784 13.5315 5.18093 13.6322 5.30481C13.7329 5.42869 13.8078 5.57141 13.8525 5.72461C13.8973 5.87782 13.9111 6.03842 13.893 6.197C13.8749 6.35559 13.8253 6.50896 13.7472 6.64814C13.669 6.78732 13.5639 6.9095 13.4379 7.00752C13.312 7.10554 13.1677 7.17743 13.0136 7.21897C12.8595 7.26051 12.6986 7.27087 12.5404 7.24943C11.8683 7.1714 11.1873 7.23643 10.5421 7.44027C9.89689 7.64411 9.30211 7.98214 8.79682 8.43216C8.29153 8.88218 7.88717 9.434 7.61028 10.0514C7.33339 10.6688 7.19025 11.3378 7.19025 12.0144Z" fill="#EBEBEB"/>
</g>
<defs>
<clipPath id="clip0_13_3242">
<rect width="24" height="24" fill="white"/>
</clipPath>
</defs>
</svg>
