<svg width="25" height="24" viewBox="0 0 25 24" fill="none" xmlns="http://www.w3.org/2000/svg">
<g clip-path="url(#clip0_13_4150)">
<path fill-rule="evenodd" clip-rule="evenodd" d="M21.627 14.7576C21.627 14.7576 23.5233 16.674 23.9924 17.5608C24.0015 17.5736 24.0086 17.5878 24.0135 17.6028C24.2047 17.9304 24.2516 18.1872 24.1577 18.3768C23.9994 18.69 23.4635 18.8472 23.2817 18.8604H19.9301C19.6967 18.8604 19.2112 18.798 18.6201 18.3804C18.1686 18.0576 17.7195 17.526 17.2844 17.0064C16.6347 16.2348 16.073 15.5652 15.5042 15.5652C15.4324 15.565 15.361 15.5772 15.2931 15.6012C14.8627 15.7404 14.3162 16.368 14.3162 18.0396C14.3162 18.5628 13.9128 18.8604 13.6302 18.8604H12.0951C11.572 18.8604 8.84896 18.6732 6.43432 16.068C3.47552 12.8784 0.818124 6.47999 0.792324 6.42359C0.626969 6.00959 0.974097 5.78399 1.34937 5.78399H4.73386C5.18771 5.78399 5.33547 6.06479 5.43867 6.31679C5.55829 6.60599 6.00158 7.76279 6.72867 9.06239C7.90609 11.1768 8.62966 12.0372 9.20782 12.0372C9.31644 12.0375 9.42322 12.0085 9.51742 11.9532C10.2727 11.5284 10.1319 8.76839 10.0967 8.19959C10.0967 8.08919 10.0956 6.96719 9.70857 6.42479C9.43181 6.03599 8.96037 5.88479 8.6754 5.82959C8.75162 5.71679 8.91346 5.54399 9.12103 5.44199C9.63821 5.17799 10.5729 5.13959 11.5005 5.13959H12.0153C13.0215 5.15399 13.2819 5.21999 13.6478 5.31479C14.3842 5.49479 14.3983 5.98319 14.3338 7.64639C14.315 8.12159 14.2951 8.65679 14.2951 9.28679C14.2951 9.42119 14.2892 9.57119 14.2892 9.72359C14.267 10.5768 14.2376 11.538 14.8264 11.9328C14.9027 11.9815 14.9909 12.0072 15.0808 12.0072C15.2849 12.0072 15.8959 12.0072 17.5529 9.09719C18.28 7.81199 18.8429 6.29639 18.8816 6.18239C18.9145 6.11879 19.013 5.93999 19.1326 5.86799C19.2177 5.82166 19.313 5.79852 19.4094 5.80079H23.3908C23.8247 5.80079 24.119 5.86799 24.1765 6.03599C24.2727 6.30839 24.1577 7.13999 22.34 9.65519C22.0339 10.074 21.7654 10.4364 21.5297 10.7532C19.882 12.966 19.882 13.0776 21.627 14.7576Z" fill="#EBEBEB"/>
</g>
<defs>
<clipPath id="clip0_13_4150">
<rect width="23.4545" height="24" fill="white" transform="translate(0.75)"/>
</clipPath>
</defs>
</svg>
